<mxfile host="app.diagrams.net" agent="Mozilla/5.0 (Windows NT 10.0; Win64; x64) AppleWebKit/537.36 (KHTML, like Gecko) Chrome/136.0.0.0 Safari/537.36" version="26.3.0">
  <diagram id="C5RBs43oDa-KdzZeNtuy" name="Page-1">
    <mxGraphModel dx="2316" dy="1972" grid="1" gridSize="10" guides="1" tooltips="1" connect="1" arrows="1" fold="1" page="1" pageScale="1" pageWidth="827" pageHeight="1169" math="0" shadow="0">
      <root>
        <mxCell id="WIyWlLk6GJQsqaUBKTNV-0" />
        <mxCell id="WIyWlLk6GJQsqaUBKTNV-1" parent="WIyWlLk6GJQsqaUBKTNV-0" />
        <mxCell id="WIyWlLk6GJQsqaUBKTNV-3" value="Usuário" style="rounded=1;whiteSpace=wrap;html=1;fontSize=12;glass=0;strokeWidth=1;shadow=0;" parent="WIyWlLk6GJQsqaUBKTNV-1" vertex="1">
          <mxGeometry x="260" y="80" width="120" height="40" as="geometry" />
        </mxCell>
        <mxCell id="BrsJwOfU04NCAWNEQIqW-2" value="" style="endArrow=none;html=1;rounded=0;entryX=0.5;entryY=1;entryDx=0;entryDy=0;exitX=0.5;exitY=0;exitDx=0;exitDy=0;" edge="1" parent="WIyWlLk6GJQsqaUBKTNV-1" source="BrsJwOfU04NCAWNEQIqW-7" target="WIyWlLk6GJQsqaUBKTNV-3">
          <mxGeometry width="50" height="50" relative="1" as="geometry">
            <mxPoint x="320" y="160" as="sourcePoint" />
            <mxPoint x="440" y="270" as="targetPoint" />
          </mxGeometry>
        </mxCell>
        <mxCell id="BrsJwOfU04NCAWNEQIqW-7" value="Anuncio" style="rhombus;whiteSpace=wrap;html=1;" vertex="1" parent="WIyWlLk6GJQsqaUBKTNV-1">
          <mxGeometry x="70" y="290" width="80" height="80" as="geometry" />
        </mxCell>
        <mxCell id="BrsJwOfU04NCAWNEQIqW-8" value="Item Encontrado" style="rounded=1;whiteSpace=wrap;html=1;fontSize=12;glass=0;strokeWidth=1;shadow=0;" vertex="1" parent="WIyWlLk6GJQsqaUBKTNV-1">
          <mxGeometry x="60" y="440" width="120" height="40" as="geometry" />
        </mxCell>
        <mxCell id="BrsJwOfU04NCAWNEQIqW-11" value="&lt;font face=&quot;Times New Roman&quot;&gt;&lt;span style=&quot;font-size: 14px; font-weight: 400;&quot;&gt;CodE&lt;/span&gt;&lt;/font&gt;" style="text;strokeColor=none;fillColor=none;html=1;fontSize=24;fontStyle=1;verticalAlign=middle;align=center;" vertex="1" parent="WIyWlLk6GJQsqaUBKTNV-1">
          <mxGeometry x="95" y="480" width="50" height="30" as="geometry" />
        </mxCell>
        <mxCell id="BrsJwOfU04NCAWNEQIqW-12" value="&lt;font face=&quot;Times New Roman&quot;&gt;&lt;span style=&quot;font-size: 14px; font-weight: 400;&quot;&gt;Categoria&lt;/span&gt;&lt;/font&gt;" style="text;strokeColor=none;fillColor=none;html=1;fontSize=24;fontStyle=1;verticalAlign=middle;align=center;" vertex="1" parent="WIyWlLk6GJQsqaUBKTNV-1">
          <mxGeometry x="100" y="540" width="50" height="30" as="geometry" />
        </mxCell>
        <mxCell id="BrsJwOfU04NCAWNEQIqW-13" value="" style="ellipse;whiteSpace=wrap;html=1;fillColor=#000000;" vertex="1" parent="WIyWlLk6GJQsqaUBKTNV-1">
          <mxGeometry x="75" y="490" width="20" height="10" as="geometry" />
        </mxCell>
        <mxCell id="BrsJwOfU04NCAWNEQIqW-14" value="" style="ellipse;whiteSpace=wrap;html=1;" vertex="1" parent="WIyWlLk6GJQsqaUBKTNV-1">
          <mxGeometry x="75" y="550" width="20" height="10" as="geometry" />
        </mxCell>
        <mxCell id="BrsJwOfU04NCAWNEQIqW-15" value="" style="ellipse;whiteSpace=wrap;html=1;" vertex="1" parent="WIyWlLk6GJQsqaUBKTNV-1">
          <mxGeometry x="75" y="575" width="20" height="10" as="geometry" />
        </mxCell>
        <mxCell id="BrsJwOfU04NCAWNEQIqW-16" value="" style="endArrow=none;html=1;rounded=0;entryX=0;entryY=0.5;entryDx=0;entryDy=0;" edge="1" parent="WIyWlLk6GJQsqaUBKTNV-1" target="BrsJwOfU04NCAWNEQIqW-13">
          <mxGeometry width="50" height="50" relative="1" as="geometry">
            <mxPoint x="65" y="495" as="sourcePoint" />
            <mxPoint x="-215" y="485" as="targetPoint" />
          </mxGeometry>
        </mxCell>
        <mxCell id="BrsJwOfU04NCAWNEQIqW-17" value="" style="endArrow=none;html=1;rounded=0;entryX=0;entryY=0.5;entryDx=0;entryDy=0;" edge="1" parent="WIyWlLk6GJQsqaUBKTNV-1" target="BrsJwOfU04NCAWNEQIqW-14">
          <mxGeometry width="50" height="50" relative="1" as="geometry">
            <mxPoint x="65" y="555" as="sourcePoint" />
            <mxPoint x="-215" y="525" as="targetPoint" />
          </mxGeometry>
        </mxCell>
        <mxCell id="BrsJwOfU04NCAWNEQIqW-18" value="" style="endArrow=none;html=1;rounded=0;entryX=0;entryY=1;entryDx=0;entryDy=0;" edge="1" parent="WIyWlLk6GJQsqaUBKTNV-1" target="BrsJwOfU04NCAWNEQIqW-15">
          <mxGeometry width="50" height="50" relative="1" as="geometry">
            <mxPoint x="65" y="585" as="sourcePoint" />
            <mxPoint x="-215" y="525" as="targetPoint" />
          </mxGeometry>
        </mxCell>
        <mxCell id="BrsJwOfU04NCAWNEQIqW-27" value="&lt;font face=&quot;Times New Roman&quot;&gt;&lt;span style=&quot;font-size: 14px; font-weight: 400;&quot;&gt;Palavras-Chave(1-N)&lt;/span&gt;&lt;/font&gt;" style="text;strokeColor=none;fillColor=none;html=1;fontSize=24;fontStyle=1;verticalAlign=middle;align=center;" vertex="1" parent="WIyWlLk6GJQsqaUBKTNV-1">
          <mxGeometry x="130" y="560" width="50" height="30" as="geometry" />
        </mxCell>
        <mxCell id="BrsJwOfU04NCAWNEQIqW-33" value="" style="ellipse;whiteSpace=wrap;html=1;" vertex="1" parent="WIyWlLk6GJQsqaUBKTNV-1">
          <mxGeometry x="75" y="520" width="20" height="10" as="geometry" />
        </mxCell>
        <mxCell id="BrsJwOfU04NCAWNEQIqW-35" value="" style="endArrow=none;html=1;rounded=0;entryX=0;entryY=0.5;entryDx=0;entryDy=0;" edge="1" parent="WIyWlLk6GJQsqaUBKTNV-1" target="BrsJwOfU04NCAWNEQIqW-33">
          <mxGeometry width="50" height="50" relative="1" as="geometry">
            <mxPoint x="65" y="525" as="sourcePoint" />
            <mxPoint x="-215" y="495" as="targetPoint" />
          </mxGeometry>
        </mxCell>
        <mxCell id="BrsJwOfU04NCAWNEQIqW-38" value="&lt;font face=&quot;Times New Roman&quot;&gt;&lt;span style=&quot;font-size: 14px; font-weight: 400;&quot;&gt;Data Encontrado&lt;/span&gt;&lt;/font&gt;" style="text;strokeColor=none;fillColor=none;html=1;fontSize=24;fontStyle=1;verticalAlign=middle;align=center;" vertex="1" parent="WIyWlLk6GJQsqaUBKTNV-1">
          <mxGeometry x="120" y="510" width="50" height="30" as="geometry" />
        </mxCell>
        <mxCell id="BrsJwOfU04NCAWNEQIqW-49" value="" style="ellipse;whiteSpace=wrap;html=1;" vertex="1" parent="WIyWlLk6GJQsqaUBKTNV-1">
          <mxGeometry x="75" y="625" width="20" height="10" as="geometry" />
        </mxCell>
        <mxCell id="BrsJwOfU04NCAWNEQIqW-51" value="" style="endArrow=none;html=1;rounded=0;entryX=0;entryY=1;entryDx=0;entryDy=0;" edge="1" parent="WIyWlLk6GJQsqaUBKTNV-1" target="BrsJwOfU04NCAWNEQIqW-49">
          <mxGeometry width="50" height="50" relative="1" as="geometry">
            <mxPoint x="65" y="635" as="sourcePoint" />
            <mxPoint x="-215" y="575" as="targetPoint" />
          </mxGeometry>
        </mxCell>
        <mxCell id="BrsJwOfU04NCAWNEQIqW-52" value="&lt;font face=&quot;Times New Roman&quot;&gt;&lt;span style=&quot;font-size: 14px; font-weight: 400;&quot;&gt;Local&lt;/span&gt;&lt;/font&gt;" style="text;strokeColor=none;fillColor=none;html=1;fontSize=24;fontStyle=1;verticalAlign=middle;align=center;" vertex="1" parent="WIyWlLk6GJQsqaUBKTNV-1">
          <mxGeometry x="100" y="615" width="50" height="30" as="geometry" />
        </mxCell>
        <mxCell id="BrsJwOfU04NCAWNEQIqW-53" value="" style="ellipse;whiteSpace=wrap;html=1;" vertex="1" parent="WIyWlLk6GJQsqaUBKTNV-1">
          <mxGeometry x="75" y="600" width="20" height="10" as="geometry" />
        </mxCell>
        <mxCell id="BrsJwOfU04NCAWNEQIqW-54" value="" style="endArrow=none;html=1;rounded=0;entryX=0;entryY=1;entryDx=0;entryDy=0;" edge="1" parent="WIyWlLk6GJQsqaUBKTNV-1" target="BrsJwOfU04NCAWNEQIqW-53">
          <mxGeometry width="50" height="50" relative="1" as="geometry">
            <mxPoint x="65" y="610" as="sourcePoint" />
            <mxPoint x="-215" y="550" as="targetPoint" />
          </mxGeometry>
        </mxCell>
        <mxCell id="BrsJwOfU04NCAWNEQIqW-55" value="&lt;font face=&quot;Times New Roman&quot;&gt;&lt;span style=&quot;font-size: 14px; font-weight: 400;&quot;&gt;Descrição&lt;/span&gt;&lt;/font&gt;" style="text;strokeColor=none;fillColor=none;html=1;fontSize=24;fontStyle=1;verticalAlign=middle;align=center;" vertex="1" parent="WIyWlLk6GJQsqaUBKTNV-1">
          <mxGeometry x="100" y="585" width="50" height="30" as="geometry" />
        </mxCell>
        <mxCell id="BrsJwOfU04NCAWNEQIqW-69" value="Item Procurado" style="rounded=1;whiteSpace=wrap;html=1;fontSize=12;glass=0;strokeWidth=1;shadow=0;" vertex="1" parent="WIyWlLk6GJQsqaUBKTNV-1">
          <mxGeometry x="510" y="405" width="120" height="40" as="geometry" />
        </mxCell>
        <mxCell id="BrsJwOfU04NCAWNEQIqW-70" value="&lt;font face=&quot;Times New Roman&quot;&gt;&lt;span style=&quot;font-size: 14px; font-weight: 400;&quot;&gt;CodP&lt;/span&gt;&lt;/font&gt;" style="text;strokeColor=none;fillColor=none;html=1;fontSize=24;fontStyle=1;verticalAlign=middle;align=center;" vertex="1" parent="WIyWlLk6GJQsqaUBKTNV-1">
          <mxGeometry x="545" y="445" width="50" height="30" as="geometry" />
        </mxCell>
        <mxCell id="BrsJwOfU04NCAWNEQIqW-71" value="" style="ellipse;whiteSpace=wrap;html=1;fillColor=#000000;" vertex="1" parent="WIyWlLk6GJQsqaUBKTNV-1">
          <mxGeometry x="525" y="455" width="20" height="10" as="geometry" />
        </mxCell>
        <mxCell id="BrsJwOfU04NCAWNEQIqW-72" value="" style="endArrow=none;html=1;rounded=0;entryX=0;entryY=0.5;entryDx=0;entryDy=0;" edge="1" parent="WIyWlLk6GJQsqaUBKTNV-1" target="BrsJwOfU04NCAWNEQIqW-71">
          <mxGeometry width="50" height="50" relative="1" as="geometry">
            <mxPoint x="515" y="460" as="sourcePoint" />
            <mxPoint x="235" y="450" as="targetPoint" />
          </mxGeometry>
        </mxCell>
        <mxCell id="BrsJwOfU04NCAWNEQIqW-74" value="" style="ellipse;whiteSpace=wrap;html=1;" vertex="1" parent="WIyWlLk6GJQsqaUBKTNV-1">
          <mxGeometry x="525" y="485" width="20" height="10" as="geometry" />
        </mxCell>
        <mxCell id="BrsJwOfU04NCAWNEQIqW-76" value="" style="endArrow=none;html=1;rounded=0;entryX=0;entryY=0.5;entryDx=0;entryDy=0;" edge="1" parent="WIyWlLk6GJQsqaUBKTNV-1" target="BrsJwOfU04NCAWNEQIqW-74">
          <mxGeometry width="50" height="50" relative="1" as="geometry">
            <mxPoint x="515" y="490" as="sourcePoint" />
            <mxPoint x="235" y="460" as="targetPoint" />
          </mxGeometry>
        </mxCell>
        <mxCell id="BrsJwOfU04NCAWNEQIqW-79" value="&lt;font face=&quot;Times New Roman&quot;&gt;&lt;span style=&quot;font-size: 14px; font-weight: 400;&quot;&gt;Data Perdido&lt;/span&gt;&lt;/font&gt;" style="text;strokeColor=none;fillColor=none;html=1;fontSize=24;fontStyle=1;verticalAlign=middle;align=center;" vertex="1" parent="WIyWlLk6GJQsqaUBKTNV-1">
          <mxGeometry x="570" y="475" width="50" height="30" as="geometry" />
        </mxCell>
        <mxCell id="BrsJwOfU04NCAWNEQIqW-82" value="" style="ellipse;whiteSpace=wrap;html=1;" vertex="1" parent="WIyWlLk6GJQsqaUBKTNV-1">
          <mxGeometry x="70" y="655" width="20" height="10" as="geometry" />
        </mxCell>
        <mxCell id="BrsJwOfU04NCAWNEQIqW-84" value="" style="endArrow=none;html=1;rounded=0;entryX=0;entryY=1;entryDx=0;entryDy=0;" edge="1" parent="WIyWlLk6GJQsqaUBKTNV-1" target="BrsJwOfU04NCAWNEQIqW-82">
          <mxGeometry width="50" height="50" relative="1" as="geometry">
            <mxPoint x="60" y="665" as="sourcePoint" />
            <mxPoint x="-220" y="605" as="targetPoint" />
          </mxGeometry>
        </mxCell>
        <mxCell id="BrsJwOfU04NCAWNEQIqW-85" value="&lt;font face=&quot;Times New Roman&quot;&gt;&lt;span style=&quot;font-size: 14px; font-weight: 400;&quot;&gt;Imagens(0-N)&lt;/span&gt;&lt;/font&gt;" style="text;strokeColor=none;fillColor=none;html=1;fontSize=24;fontStyle=1;verticalAlign=middle;align=center;" vertex="1" parent="WIyWlLk6GJQsqaUBKTNV-1">
          <mxGeometry x="110" y="645" width="50" height="30" as="geometry" />
        </mxCell>
        <mxCell id="BrsJwOfU04NCAWNEQIqW-100" value="" style="ellipse;whiteSpace=wrap;html=1;" vertex="1" parent="WIyWlLk6GJQsqaUBKTNV-1">
          <mxGeometry x="525" y="515" width="20" height="10" as="geometry" />
        </mxCell>
        <mxCell id="BrsJwOfU04NCAWNEQIqW-101" value="" style="ellipse;whiteSpace=wrap;html=1;" vertex="1" parent="WIyWlLk6GJQsqaUBKTNV-1">
          <mxGeometry x="525" y="540" width="20" height="10" as="geometry" />
        </mxCell>
        <mxCell id="BrsJwOfU04NCAWNEQIqW-102" value="" style="endArrow=none;html=1;rounded=0;entryX=0;entryY=0.5;entryDx=0;entryDy=0;" edge="1" parent="WIyWlLk6GJQsqaUBKTNV-1" target="BrsJwOfU04NCAWNEQIqW-100">
          <mxGeometry width="50" height="50" relative="1" as="geometry">
            <mxPoint x="515" y="520" as="sourcePoint" />
            <mxPoint x="235" y="490" as="targetPoint" />
          </mxGeometry>
        </mxCell>
        <mxCell id="BrsJwOfU04NCAWNEQIqW-103" value="" style="endArrow=none;html=1;rounded=0;entryX=0;entryY=1;entryDx=0;entryDy=0;" edge="1" parent="WIyWlLk6GJQsqaUBKTNV-1" target="BrsJwOfU04NCAWNEQIqW-101">
          <mxGeometry width="50" height="50" relative="1" as="geometry">
            <mxPoint x="515" y="550" as="sourcePoint" />
            <mxPoint x="235" y="490" as="targetPoint" />
          </mxGeometry>
        </mxCell>
        <mxCell id="BrsJwOfU04NCAWNEQIqW-104" value="&lt;font face=&quot;Times New Roman&quot;&gt;&lt;span style=&quot;font-size: 14px; font-weight: 400;&quot;&gt;Palavras-Chave(1-N)&lt;/span&gt;&lt;/font&gt;" style="text;strokeColor=none;fillColor=none;html=1;fontSize=24;fontStyle=1;verticalAlign=middle;align=center;" vertex="1" parent="WIyWlLk6GJQsqaUBKTNV-1">
          <mxGeometry x="580" y="525" width="50" height="30" as="geometry" />
        </mxCell>
        <mxCell id="BrsJwOfU04NCAWNEQIqW-107" value="" style="ellipse;whiteSpace=wrap;html=1;" vertex="1" parent="WIyWlLk6GJQsqaUBKTNV-1">
          <mxGeometry x="520" y="590" width="20" height="10" as="geometry" />
        </mxCell>
        <mxCell id="BrsJwOfU04NCAWNEQIqW-109" value="" style="endArrow=none;html=1;rounded=0;entryX=0;entryY=1;entryDx=0;entryDy=0;" edge="1" parent="WIyWlLk6GJQsqaUBKTNV-1" target="BrsJwOfU04NCAWNEQIqW-107">
          <mxGeometry width="50" height="50" relative="1" as="geometry">
            <mxPoint x="510" y="600" as="sourcePoint" />
            <mxPoint x="230" y="540" as="targetPoint" />
          </mxGeometry>
        </mxCell>
        <mxCell id="BrsJwOfU04NCAWNEQIqW-110" value="&lt;font face=&quot;Times New Roman&quot;&gt;&lt;span style=&quot;font-size: 14px; font-weight: 400;&quot;&gt;Local&lt;/span&gt;&lt;/font&gt;" style="text;strokeColor=none;fillColor=none;html=1;fontSize=24;fontStyle=1;verticalAlign=middle;align=center;" vertex="1" parent="WIyWlLk6GJQsqaUBKTNV-1">
          <mxGeometry x="545" y="580" width="50" height="30" as="geometry" />
        </mxCell>
        <mxCell id="BrsJwOfU04NCAWNEQIqW-111" value="" style="ellipse;whiteSpace=wrap;html=1;" vertex="1" parent="WIyWlLk6GJQsqaUBKTNV-1">
          <mxGeometry x="525" y="565" width="20" height="10" as="geometry" />
        </mxCell>
        <mxCell id="BrsJwOfU04NCAWNEQIqW-112" value="" style="endArrow=none;html=1;rounded=0;entryX=0;entryY=1;entryDx=0;entryDy=0;" edge="1" parent="WIyWlLk6GJQsqaUBKTNV-1" target="BrsJwOfU04NCAWNEQIqW-111">
          <mxGeometry width="50" height="50" relative="1" as="geometry">
            <mxPoint x="515" y="575" as="sourcePoint" />
            <mxPoint x="235" y="515" as="targetPoint" />
          </mxGeometry>
        </mxCell>
        <mxCell id="BrsJwOfU04NCAWNEQIqW-113" value="&lt;font face=&quot;Times New Roman&quot;&gt;&lt;span style=&quot;font-size: 14px; font-weight: 400;&quot;&gt;Descrição&lt;/span&gt;&lt;/font&gt;" style="text;strokeColor=none;fillColor=none;html=1;fontSize=24;fontStyle=1;verticalAlign=middle;align=center;" vertex="1" parent="WIyWlLk6GJQsqaUBKTNV-1">
          <mxGeometry x="550" y="550" width="50" height="30" as="geometry" />
        </mxCell>
        <mxCell id="BrsJwOfU04NCAWNEQIqW-114" value="&lt;font face=&quot;Times New Roman&quot;&gt;&lt;span style=&quot;font-size: 14px; font-weight: 400;&quot;&gt;Categoria&lt;/span&gt;&lt;/font&gt;" style="text;strokeColor=none;fillColor=none;html=1;fontSize=24;fontStyle=1;verticalAlign=middle;align=center;" vertex="1" parent="WIyWlLk6GJQsqaUBKTNV-1">
          <mxGeometry x="550" y="500" width="50" height="30" as="geometry" />
        </mxCell>
        <mxCell id="BrsJwOfU04NCAWNEQIqW-115" value="&lt;font face=&quot;Times New Roman&quot;&gt;&lt;span style=&quot;font-size: 14px; font-weight: 400;&quot;&gt;Recompensa financeira&lt;/span&gt;&lt;/font&gt;" style="text;strokeColor=none;fillColor=none;html=1;fontSize=24;fontStyle=1;verticalAlign=middle;align=center;" vertex="1" parent="WIyWlLk6GJQsqaUBKTNV-1">
          <mxGeometry x="590" y="600" width="50" height="30" as="geometry" />
        </mxCell>
        <mxCell id="BrsJwOfU04NCAWNEQIqW-116" value="" style="ellipse;whiteSpace=wrap;html=1;" vertex="1" parent="WIyWlLk6GJQsqaUBKTNV-1">
          <mxGeometry x="520" y="615" width="20" height="10" as="geometry" />
        </mxCell>
        <mxCell id="BrsJwOfU04NCAWNEQIqW-117" value="" style="ellipse;whiteSpace=wrap;html=1;" vertex="1" parent="WIyWlLk6GJQsqaUBKTNV-1">
          <mxGeometry x="520" y="640" width="20" height="10" as="geometry" />
        </mxCell>
        <mxCell id="BrsJwOfU04NCAWNEQIqW-118" value="" style="endArrow=none;html=1;rounded=0;entryX=0;entryY=0.5;entryDx=0;entryDy=0;" edge="1" parent="WIyWlLk6GJQsqaUBKTNV-1" target="BrsJwOfU04NCAWNEQIqW-116">
          <mxGeometry width="50" height="50" relative="1" as="geometry">
            <mxPoint x="510" y="620" as="sourcePoint" />
            <mxPoint x="230" y="590" as="targetPoint" />
          </mxGeometry>
        </mxCell>
        <mxCell id="BrsJwOfU04NCAWNEQIqW-119" value="" style="endArrow=none;html=1;rounded=0;entryX=0;entryY=1;entryDx=0;entryDy=0;" edge="1" parent="WIyWlLk6GJQsqaUBKTNV-1" target="BrsJwOfU04NCAWNEQIqW-117">
          <mxGeometry width="50" height="50" relative="1" as="geometry">
            <mxPoint x="510" y="650" as="sourcePoint" />
            <mxPoint x="230" y="590" as="targetPoint" />
          </mxGeometry>
        </mxCell>
        <mxCell id="BrsJwOfU04NCAWNEQIqW-120" value="&lt;font face=&quot;Times New Roman&quot;&gt;&lt;span style=&quot;font-size: 14px; font-weight: 400;&quot;&gt;Recompensa simbólica&lt;/span&gt;&lt;/font&gt;" style="text;strokeColor=none;fillColor=none;html=1;fontSize=24;fontStyle=1;verticalAlign=middle;align=center;" vertex="1" parent="WIyWlLk6GJQsqaUBKTNV-1">
          <mxGeometry x="585" y="630" width="50" height="30" as="geometry" />
        </mxCell>
        <mxCell id="BrsJwOfU04NCAWNEQIqW-124" value="Denuncia" style="rhombus;whiteSpace=wrap;html=1;" vertex="1" parent="WIyWlLk6GJQsqaUBKTNV-1">
          <mxGeometry x="120" y="-40" width="80" height="80" as="geometry" />
        </mxCell>
        <mxCell id="BrsJwOfU04NCAWNEQIqW-127" value="&lt;font face=&quot;Times New Roman&quot;&gt;&lt;span style=&quot;font-size: 14px; font-weight: 400;&quot;&gt;0-N&lt;/span&gt;&lt;/font&gt;" style="text;strokeColor=none;fillColor=none;html=1;fontSize=24;fontStyle=1;verticalAlign=middle;align=center;" vertex="1" parent="WIyWlLk6GJQsqaUBKTNV-1">
          <mxGeometry x="204" y="-30" width="50" height="30" as="geometry" />
        </mxCell>
        <mxCell id="BrsJwOfU04NCAWNEQIqW-128" value="&lt;font face=&quot;Times New Roman&quot;&gt;&lt;span style=&quot;font-size: 14px; font-weight: 400;&quot;&gt;0-N&lt;/span&gt;&lt;/font&gt;" style="text;strokeColor=none;fillColor=none;html=1;fontSize=24;fontStyle=1;verticalAlign=middle;align=center;" vertex="1" parent="WIyWlLk6GJQsqaUBKTNV-1">
          <mxGeometry x="70" y="-30" width="50" height="30" as="geometry" />
        </mxCell>
        <mxCell id="BrsJwOfU04NCAWNEQIqW-129" value="" style="ellipse;whiteSpace=wrap;html=1;" vertex="1" parent="WIyWlLk6GJQsqaUBKTNV-1">
          <mxGeometry x="170" y="-70" width="20" height="10" as="geometry" />
        </mxCell>
        <mxCell id="BrsJwOfU04NCAWNEQIqW-130" value="" style="endArrow=none;html=1;rounded=0;entryX=0;entryY=1;entryDx=0;entryDy=0;" edge="1" parent="WIyWlLk6GJQsqaUBKTNV-1" target="BrsJwOfU04NCAWNEQIqW-129">
          <mxGeometry width="50" height="50" relative="1" as="geometry">
            <mxPoint x="160" y="-60" as="sourcePoint" />
            <mxPoint x="-120" y="-120" as="targetPoint" />
          </mxGeometry>
        </mxCell>
        <mxCell id="BrsJwOfU04NCAWNEQIqW-131" value="&lt;font face=&quot;Times New Roman&quot;&gt;&lt;span style=&quot;font-size: 14px; font-weight: 400;&quot;&gt;Descrição&lt;/span&gt;&lt;/font&gt;" style="text;strokeColor=none;fillColor=none;html=1;fontSize=24;fontStyle=1;verticalAlign=middle;align=center;" vertex="1" parent="WIyWlLk6GJQsqaUBKTNV-1">
          <mxGeometry x="204" y="-80" width="50" height="30" as="geometry" />
        </mxCell>
        <mxCell id="BrsJwOfU04NCAWNEQIqW-132" value="" style="endArrow=none;html=1;rounded=0;exitX=0.485;exitY=0.095;exitDx=0;exitDy=0;exitPerimeter=0;" edge="1" parent="WIyWlLk6GJQsqaUBKTNV-1" source="BrsJwOfU04NCAWNEQIqW-124">
          <mxGeometry width="50" height="50" relative="1" as="geometry">
            <mxPoint x="200" y="60" as="sourcePoint" />
            <mxPoint x="160" y="-70" as="targetPoint" />
          </mxGeometry>
        </mxCell>
        <mxCell id="BrsJwOfU04NCAWNEQIqW-133" value="" style="ellipse;whiteSpace=wrap;html=1;fillColor=#000000;" vertex="1" parent="WIyWlLk6GJQsqaUBKTNV-1">
          <mxGeometry x="170" y="-90" width="20" height="10" as="geometry" />
        </mxCell>
        <mxCell id="BrsJwOfU04NCAWNEQIqW-134" value="&lt;font face=&quot;Times New Roman&quot;&gt;&lt;span style=&quot;font-size: 14px; font-weight: 400;&quot;&gt;CodD&lt;/span&gt;&lt;/font&gt;" style="text;strokeColor=none;fillColor=none;html=1;fontSize=24;fontStyle=1;verticalAlign=middle;align=center;" vertex="1" parent="WIyWlLk6GJQsqaUBKTNV-1">
          <mxGeometry x="200" y="-100" width="50" height="30" as="geometry" />
        </mxCell>
        <mxCell id="BrsJwOfU04NCAWNEQIqW-135" value="" style="endArrow=none;html=1;rounded=0;entryX=0;entryY=0.5;entryDx=0;entryDy=0;" edge="1" parent="WIyWlLk6GJQsqaUBKTNV-1" target="BrsJwOfU04NCAWNEQIqW-133">
          <mxGeometry width="50" height="50" relative="1" as="geometry">
            <mxPoint x="160" y="-60" as="sourcePoint" />
            <mxPoint x="250" y="10" as="targetPoint" />
            <Array as="points">
              <mxPoint x="160" y="-90" />
            </Array>
          </mxGeometry>
        </mxCell>
        <mxCell id="BrsJwOfU04NCAWNEQIqW-136" value="" style="ellipse;whiteSpace=wrap;html=1;fillColor=#000000;" vertex="1" parent="WIyWlLk6GJQsqaUBKTNV-1">
          <mxGeometry x="5" y="150" width="20" height="10" as="geometry" />
        </mxCell>
        <mxCell id="BrsJwOfU04NCAWNEQIqW-137" value="" style="ellipse;whiteSpace=wrap;html=1;" vertex="1" parent="WIyWlLk6GJQsqaUBKTNV-1">
          <mxGeometry x="5" y="230" width="20" height="10" as="geometry" />
        </mxCell>
        <mxCell id="BrsJwOfU04NCAWNEQIqW-138" value="" style="ellipse;whiteSpace=wrap;html=1;" vertex="1" parent="WIyWlLk6GJQsqaUBKTNV-1">
          <mxGeometry x="5" y="180" width="20" height="10" as="geometry" />
        </mxCell>
        <mxCell id="BrsJwOfU04NCAWNEQIqW-139" value="" style="ellipse;whiteSpace=wrap;html=1;" vertex="1" parent="WIyWlLk6GJQsqaUBKTNV-1">
          <mxGeometry x="5" y="205" width="20" height="10" as="geometry" />
        </mxCell>
        <mxCell id="BrsJwOfU04NCAWNEQIqW-140" value="&lt;font face=&quot;Times New Roman&quot;&gt;&lt;span style=&quot;font-size: 14px; font-weight: 400;&quot;&gt;Data Fim(0-1)&lt;/span&gt;&lt;/font&gt;" style="text;strokeColor=none;fillColor=none;html=1;fontSize=24;fontStyle=1;verticalAlign=middle;align=center;" vertex="1" parent="WIyWlLk6GJQsqaUBKTNV-1">
          <mxGeometry x="50" y="190" width="50" height="30" as="geometry" />
        </mxCell>
        <mxCell id="BrsJwOfU04NCAWNEQIqW-141" value="&lt;font face=&quot;Times New Roman&quot;&gt;&lt;span style=&quot;font-size: 14px; font-weight: 400;&quot;&gt;Data Inicio&lt;/span&gt;&lt;/font&gt;" style="text;strokeColor=none;fillColor=none;html=1;fontSize=24;fontStyle=1;verticalAlign=middle;align=center;" vertex="1" parent="WIyWlLk6GJQsqaUBKTNV-1">
          <mxGeometry x="40" y="160" width="50" height="30" as="geometry" />
        </mxCell>
        <mxCell id="BrsJwOfU04NCAWNEQIqW-142" value="&lt;font face=&quot;Times New Roman&quot;&gt;&lt;span style=&quot;font-size: 14px; font-weight: 400;&quot;&gt;CodA&lt;/span&gt;&lt;/font&gt;" style="text;strokeColor=none;fillColor=none;html=1;fontSize=24;fontStyle=1;verticalAlign=middle;align=center;" vertex="1" parent="WIyWlLk6GJQsqaUBKTNV-1">
          <mxGeometry x="25" y="140" width="50" height="30" as="geometry" />
        </mxCell>
        <mxCell id="BrsJwOfU04NCAWNEQIqW-143" value="&lt;font face=&quot;Times New Roman&quot;&gt;&lt;span style=&quot;font-size: 14px; font-weight: 400;&quot;&gt;Status&lt;/span&gt;&lt;/font&gt;" style="text;strokeColor=none;fillColor=none;html=1;fontSize=24;fontStyle=1;verticalAlign=middle;align=center;" vertex="1" parent="WIyWlLk6GJQsqaUBKTNV-1">
          <mxGeometry x="35" y="215" width="50" height="30" as="geometry" />
        </mxCell>
        <mxCell id="BrsJwOfU04NCAWNEQIqW-144" value="&lt;font face=&quot;Times New Roman&quot;&gt;&lt;span style=&quot;font-size: 14px; font-weight: 400;&quot;&gt;Dono (0-1)&lt;/span&gt;&lt;/font&gt;" style="text;strokeColor=none;fillColor=none;html=1;fontSize=24;fontStyle=1;verticalAlign=middle;align=center;" vertex="1" parent="WIyWlLk6GJQsqaUBKTNV-1">
          <mxGeometry x="40" y="245" width="50" height="30" as="geometry" />
        </mxCell>
        <mxCell id="BrsJwOfU04NCAWNEQIqW-145" value="" style="ellipse;whiteSpace=wrap;html=1;" vertex="1" parent="WIyWlLk6GJQsqaUBKTNV-1">
          <mxGeometry x="5" y="255" width="20" height="10" as="geometry" />
        </mxCell>
        <mxCell id="BrsJwOfU04NCAWNEQIqW-147" value="" style="endArrow=none;html=1;rounded=0;entryX=0;entryY=0.5;entryDx=0;entryDy=0;" edge="1" parent="WIyWlLk6GJQsqaUBKTNV-1" target="BrsJwOfU04NCAWNEQIqW-138">
          <mxGeometry width="50" height="50" relative="1" as="geometry">
            <mxPoint x="-20" y="185" as="sourcePoint" />
            <mxPoint x="410" y="380" as="targetPoint" />
          </mxGeometry>
        </mxCell>
        <mxCell id="BrsJwOfU04NCAWNEQIqW-148" value="" style="endArrow=none;html=1;rounded=0;entryX=0;entryY=0.5;entryDx=0;entryDy=0;" edge="1" parent="WIyWlLk6GJQsqaUBKTNV-1" target="BrsJwOfU04NCAWNEQIqW-139">
          <mxGeometry width="50" height="50" relative="1" as="geometry">
            <mxPoint x="-20" y="210" as="sourcePoint" />
            <mxPoint x="410" y="380" as="targetPoint" />
          </mxGeometry>
        </mxCell>
        <mxCell id="BrsJwOfU04NCAWNEQIqW-149" value="" style="endArrow=none;html=1;rounded=0;entryX=0;entryY=0.5;entryDx=0;entryDy=0;" edge="1" parent="WIyWlLk6GJQsqaUBKTNV-1" target="BrsJwOfU04NCAWNEQIqW-137">
          <mxGeometry width="50" height="50" relative="1" as="geometry">
            <mxPoint x="-20" y="235" as="sourcePoint" />
            <mxPoint x="145" y="220" as="targetPoint" />
          </mxGeometry>
        </mxCell>
        <mxCell id="BrsJwOfU04NCAWNEQIqW-150" value="" style="endArrow=none;html=1;rounded=0;entryX=0;entryY=0.5;entryDx=0;entryDy=0;" edge="1" parent="WIyWlLk6GJQsqaUBKTNV-1" target="BrsJwOfU04NCAWNEQIqW-145">
          <mxGeometry width="50" height="50" relative="1" as="geometry">
            <mxPoint x="-20" y="260" as="sourcePoint" />
            <mxPoint x="155" y="230" as="targetPoint" />
          </mxGeometry>
        </mxCell>
        <mxCell id="BrsJwOfU04NCAWNEQIqW-151" value="" style="endArrow=none;html=1;rounded=0;entryX=0.5;entryY=1;entryDx=0;entryDy=0;exitX=0.43;exitY=-0.04;exitDx=0;exitDy=0;exitPerimeter=0;" edge="1" parent="WIyWlLk6GJQsqaUBKTNV-1" source="BrsJwOfU04NCAWNEQIqW-8" target="BrsJwOfU04NCAWNEQIqW-7">
          <mxGeometry width="50" height="50" relative="1" as="geometry">
            <mxPoint x="360" y="230" as="sourcePoint" />
            <mxPoint x="410" y="180" as="targetPoint" />
          </mxGeometry>
        </mxCell>
        <mxCell id="BrsJwOfU04NCAWNEQIqW-152" value="&lt;font face=&quot;Times New Roman&quot;&gt;&lt;span style=&quot;font-size: 14px; font-weight: 400;&quot;&gt;1-1&lt;/span&gt;&lt;/font&gt;" style="text;strokeColor=none;fillColor=none;html=1;fontSize=24;fontStyle=1;verticalAlign=middle;align=center;" vertex="1" parent="WIyWlLk6GJQsqaUBKTNV-1">
          <mxGeometry x="180" y="160" width="50" height="30" as="geometry" />
        </mxCell>
        <mxCell id="BrsJwOfU04NCAWNEQIqW-153" value="&lt;font face=&quot;Times New Roman&quot;&gt;&lt;span style=&quot;font-size: 14px; font-weight: 400;&quot;&gt;0-N&lt;/span&gt;&lt;/font&gt;" style="text;strokeColor=none;fillColor=none;html=1;fontSize=24;fontStyle=1;verticalAlign=middle;align=center;" vertex="1" parent="WIyWlLk6GJQsqaUBKTNV-1">
          <mxGeometry x="110" y="380" width="50" height="30" as="geometry" />
        </mxCell>
        <mxCell id="BrsJwOfU04NCAWNEQIqW-154" value="" style="endArrow=none;html=1;rounded=0;entryX=0;entryY=0.5;entryDx=0;entryDy=0;exitX=0;exitY=0.5;exitDx=0;exitDy=0;" edge="1" parent="WIyWlLk6GJQsqaUBKTNV-1" source="BrsJwOfU04NCAWNEQIqW-136" target="BrsJwOfU04NCAWNEQIqW-7">
          <mxGeometry width="50" height="50" relative="1" as="geometry">
            <mxPoint x="120" y="230" as="sourcePoint" />
            <mxPoint x="170" y="180" as="targetPoint" />
            <Array as="points">
              <mxPoint x="-30" y="155" />
              <mxPoint x="-30" y="330" />
            </Array>
          </mxGeometry>
        </mxCell>
        <mxCell id="BrsJwOfU04NCAWNEQIqW-155" value="" style="endArrow=none;html=1;rounded=0;entryX=0;entryY=1;entryDx=0;entryDy=0;" edge="1" parent="WIyWlLk6GJQsqaUBKTNV-1" target="BrsJwOfU04NCAWNEQIqW-8">
          <mxGeometry width="50" height="50" relative="1" as="geometry">
            <mxPoint x="60" y="660" as="sourcePoint" />
            <mxPoint x="380" y="480" as="targetPoint" />
          </mxGeometry>
        </mxCell>
        <mxCell id="BrsJwOfU04NCAWNEQIqW-156" value="Solicitação" style="rhombus;whiteSpace=wrap;html=1;" vertex="1" parent="WIyWlLk6GJQsqaUBKTNV-1">
          <mxGeometry x="530" y="265" width="80" height="80" as="geometry" />
        </mxCell>
        <mxCell id="BrsJwOfU04NCAWNEQIqW-157" value="" style="ellipse;whiteSpace=wrap;html=1;fillColor=#000000;" vertex="1" parent="WIyWlLk6GJQsqaUBKTNV-1">
          <mxGeometry x="635" y="190" width="20" height="10" as="geometry" />
        </mxCell>
        <mxCell id="BrsJwOfU04NCAWNEQIqW-158" value="" style="ellipse;whiteSpace=wrap;html=1;" vertex="1" parent="WIyWlLk6GJQsqaUBKTNV-1">
          <mxGeometry x="635" y="265" width="20" height="10" as="geometry" />
        </mxCell>
        <mxCell id="BrsJwOfU04NCAWNEQIqW-159" value="" style="ellipse;whiteSpace=wrap;html=1;" vertex="1" parent="WIyWlLk6GJQsqaUBKTNV-1">
          <mxGeometry x="635" y="215" width="20" height="10" as="geometry" />
        </mxCell>
        <mxCell id="BrsJwOfU04NCAWNEQIqW-160" value="" style="ellipse;whiteSpace=wrap;html=1;" vertex="1" parent="WIyWlLk6GJQsqaUBKTNV-1">
          <mxGeometry x="635" y="240" width="20" height="10" as="geometry" />
        </mxCell>
        <mxCell id="BrsJwOfU04NCAWNEQIqW-161" value="&lt;font face=&quot;Times New Roman&quot;&gt;&lt;span style=&quot;font-size: 14px; font-weight: 400;&quot;&gt;Data Fim(0-1)&lt;/span&gt;&lt;/font&gt;" style="text;strokeColor=none;fillColor=none;html=1;fontSize=24;fontStyle=1;verticalAlign=middle;align=center;" vertex="1" parent="WIyWlLk6GJQsqaUBKTNV-1">
          <mxGeometry x="680" y="225" width="50" height="30" as="geometry" />
        </mxCell>
        <mxCell id="BrsJwOfU04NCAWNEQIqW-162" value="&lt;font face=&quot;Times New Roman&quot;&gt;&lt;span style=&quot;font-size: 14px; font-weight: 400;&quot;&gt;Data Inicio&lt;/span&gt;&lt;/font&gt;" style="text;strokeColor=none;fillColor=none;html=1;fontSize=24;fontStyle=1;verticalAlign=middle;align=center;" vertex="1" parent="WIyWlLk6GJQsqaUBKTNV-1">
          <mxGeometry x="665" y="200" width="50" height="30" as="geometry" />
        </mxCell>
        <mxCell id="BrsJwOfU04NCAWNEQIqW-163" value="&lt;font face=&quot;Times New Roman&quot;&gt;&lt;span style=&quot;font-size: 14px; font-weight: 400;&quot;&gt;CodO&lt;/span&gt;&lt;/font&gt;" style="text;strokeColor=none;fillColor=none;html=1;fontSize=24;fontStyle=1;verticalAlign=middle;align=center;" vertex="1" parent="WIyWlLk6GJQsqaUBKTNV-1">
          <mxGeometry x="665" y="175" width="50" height="30" as="geometry" />
        </mxCell>
        <mxCell id="BrsJwOfU04NCAWNEQIqW-164" value="&lt;font face=&quot;Times New Roman&quot;&gt;&lt;span style=&quot;font-size: 14px; font-weight: 400;&quot;&gt;Status&lt;/span&gt;&lt;/font&gt;" style="text;strokeColor=none;fillColor=none;html=1;fontSize=24;fontStyle=1;verticalAlign=middle;align=center;" vertex="1" parent="WIyWlLk6GJQsqaUBKTNV-1">
          <mxGeometry x="665" y="250" width="50" height="30" as="geometry" />
        </mxCell>
        <mxCell id="BrsJwOfU04NCAWNEQIqW-165" value="&lt;font face=&quot;Times New Roman&quot;&gt;&lt;span style=&quot;font-size: 14px; font-weight: 400;&quot;&gt;Usuuário que Encontrou(0-1)&lt;/span&gt;&lt;/font&gt;" style="text;strokeColor=none;fillColor=none;html=1;fontSize=24;fontStyle=1;verticalAlign=middle;align=center;" vertex="1" parent="WIyWlLk6GJQsqaUBKTNV-1">
          <mxGeometry x="720" y="280" width="50" height="30" as="geometry" />
        </mxCell>
        <mxCell id="BrsJwOfU04NCAWNEQIqW-166" value="" style="ellipse;whiteSpace=wrap;html=1;" vertex="1" parent="WIyWlLk6GJQsqaUBKTNV-1">
          <mxGeometry x="635" y="290" width="20" height="10" as="geometry" />
        </mxCell>
        <mxCell id="BrsJwOfU04NCAWNEQIqW-167" value="" style="endArrow=none;html=1;rounded=0;entryX=0;entryY=0.5;entryDx=0;entryDy=0;" edge="1" parent="WIyWlLk6GJQsqaUBKTNV-1" target="BrsJwOfU04NCAWNEQIqW-159">
          <mxGeometry width="50" height="50" relative="1" as="geometry">
            <mxPoint x="610" y="220" as="sourcePoint" />
            <mxPoint x="1040" y="415" as="targetPoint" />
          </mxGeometry>
        </mxCell>
        <mxCell id="BrsJwOfU04NCAWNEQIqW-168" value="" style="endArrow=none;html=1;rounded=0;entryX=0;entryY=0.5;entryDx=0;entryDy=0;" edge="1" parent="WIyWlLk6GJQsqaUBKTNV-1" target="BrsJwOfU04NCAWNEQIqW-160">
          <mxGeometry width="50" height="50" relative="1" as="geometry">
            <mxPoint x="610" y="245" as="sourcePoint" />
            <mxPoint x="1040" y="415" as="targetPoint" />
          </mxGeometry>
        </mxCell>
        <mxCell id="BrsJwOfU04NCAWNEQIqW-169" value="" style="endArrow=none;html=1;rounded=0;entryX=0;entryY=0.5;entryDx=0;entryDy=0;" edge="1" parent="WIyWlLk6GJQsqaUBKTNV-1" target="BrsJwOfU04NCAWNEQIqW-158">
          <mxGeometry width="50" height="50" relative="1" as="geometry">
            <mxPoint x="610" y="270" as="sourcePoint" />
            <mxPoint x="775" y="255" as="targetPoint" />
          </mxGeometry>
        </mxCell>
        <mxCell id="BrsJwOfU04NCAWNEQIqW-170" value="" style="endArrow=none;html=1;rounded=0;entryX=0;entryY=0.5;entryDx=0;entryDy=0;" edge="1" parent="WIyWlLk6GJQsqaUBKTNV-1" target="BrsJwOfU04NCAWNEQIqW-166">
          <mxGeometry width="50" height="50" relative="1" as="geometry">
            <mxPoint x="610" y="295" as="sourcePoint" />
            <mxPoint x="785" y="265" as="targetPoint" />
          </mxGeometry>
        </mxCell>
        <mxCell id="BrsJwOfU04NCAWNEQIqW-171" value="" style="endArrow=none;html=1;rounded=0;entryX=0;entryY=0.5;entryDx=0;entryDy=0;exitX=1;exitY=0.5;exitDx=0;exitDy=0;" edge="1" parent="WIyWlLk6GJQsqaUBKTNV-1" source="BrsJwOfU04NCAWNEQIqW-156" target="BrsJwOfU04NCAWNEQIqW-157">
          <mxGeometry width="50" height="50" relative="1" as="geometry">
            <mxPoint x="380" y="330" as="sourcePoint" />
            <mxPoint x="430" y="280" as="targetPoint" />
            <Array as="points">
              <mxPoint x="610" y="195" />
            </Array>
          </mxGeometry>
        </mxCell>
        <mxCell id="BrsJwOfU04NCAWNEQIqW-173" value="" style="endArrow=none;html=1;rounded=0;entryX=0.75;entryY=1;entryDx=0;entryDy=0;exitX=0.5;exitY=0;exitDx=0;exitDy=0;" edge="1" parent="WIyWlLk6GJQsqaUBKTNV-1" source="BrsJwOfU04NCAWNEQIqW-156" target="WIyWlLk6GJQsqaUBKTNV-3">
          <mxGeometry width="50" height="50" relative="1" as="geometry">
            <mxPoint x="380" y="330" as="sourcePoint" />
            <mxPoint x="430" y="280" as="targetPoint" />
          </mxGeometry>
        </mxCell>
        <mxCell id="BrsJwOfU04NCAWNEQIqW-174" value="" style="endArrow=none;html=1;rounded=0;entryX=0.5;entryY=1;entryDx=0;entryDy=0;exitX=0.5;exitY=0;exitDx=0;exitDy=0;" edge="1" parent="WIyWlLk6GJQsqaUBKTNV-1" source="BrsJwOfU04NCAWNEQIqW-69" target="BrsJwOfU04NCAWNEQIqW-156">
          <mxGeometry width="50" height="50" relative="1" as="geometry">
            <mxPoint x="380" y="330" as="sourcePoint" />
            <mxPoint x="430" y="280" as="targetPoint" />
          </mxGeometry>
        </mxCell>
        <mxCell id="BrsJwOfU04NCAWNEQIqW-175" value="&lt;font face=&quot;Times New Roman&quot;&gt;&lt;span style=&quot;font-size: 14px; font-weight: 400;&quot;&gt;1-1&lt;/span&gt;&lt;/font&gt;" style="text;strokeColor=none;fillColor=none;html=1;fontSize=24;fontStyle=1;verticalAlign=middle;align=center;" vertex="1" parent="WIyWlLk6GJQsqaUBKTNV-1">
          <mxGeometry x="460" y="170" width="50" height="30" as="geometry" />
        </mxCell>
        <mxCell id="BrsJwOfU04NCAWNEQIqW-176" value="&lt;font face=&quot;Times New Roman&quot;&gt;&lt;span style=&quot;font-size: 14px; font-weight: 400;&quot;&gt;0-N&lt;/span&gt;&lt;/font&gt;" style="text;strokeColor=none;fillColor=none;html=1;fontSize=24;fontStyle=1;verticalAlign=middle;align=center;" vertex="1" parent="WIyWlLk6GJQsqaUBKTNV-1">
          <mxGeometry x="560" y="360" width="50" height="30" as="geometry" />
        </mxCell>
        <mxCell id="BrsJwOfU04NCAWNEQIqW-177" value="" style="endArrow=none;html=1;rounded=0;entryX=0;entryY=1;entryDx=0;entryDy=0;" edge="1" parent="WIyWlLk6GJQsqaUBKTNV-1" target="BrsJwOfU04NCAWNEQIqW-69">
          <mxGeometry width="50" height="50" relative="1" as="geometry">
            <mxPoint x="510" y="650" as="sourcePoint" />
            <mxPoint x="430" y="510" as="targetPoint" />
          </mxGeometry>
        </mxCell>
        <mxCell id="BrsJwOfU04NCAWNEQIqW-178" value="Mensagem" style="rounded=1;whiteSpace=wrap;html=1;fontSize=12;glass=0;strokeWidth=1;shadow=0;" vertex="1" parent="WIyWlLk6GJQsqaUBKTNV-1">
          <mxGeometry x="590" y="80" width="120" height="40" as="geometry" />
        </mxCell>
        <mxCell id="BrsJwOfU04NCAWNEQIqW-179" value="" style="ellipse;whiteSpace=wrap;html=1;fillColor=#000000;" vertex="1" parent="WIyWlLk6GJQsqaUBKTNV-1">
          <mxGeometry x="630" y="5" width="20" height="10" as="geometry" />
        </mxCell>
        <mxCell id="BrsJwOfU04NCAWNEQIqW-181" value="" style="ellipse;whiteSpace=wrap;html=1;" vertex="1" parent="WIyWlLk6GJQsqaUBKTNV-1">
          <mxGeometry x="630" y="30" width="20" height="10" as="geometry" />
        </mxCell>
        <mxCell id="BrsJwOfU04NCAWNEQIqW-182" value="" style="ellipse;whiteSpace=wrap;html=1;" vertex="1" parent="WIyWlLk6GJQsqaUBKTNV-1">
          <mxGeometry x="630" y="55" width="20" height="10" as="geometry" />
        </mxCell>
        <mxCell id="BrsJwOfU04NCAWNEQIqW-183" value="&lt;font face=&quot;Times New Roman&quot;&gt;&lt;span style=&quot;font-size: 14px; font-weight: 400;&quot;&gt;Destinatário(foreign key)&lt;/span&gt;&lt;/font&gt;" style="text;strokeColor=none;fillColor=none;html=1;fontSize=24;fontStyle=1;verticalAlign=middle;align=center;" vertex="1" parent="WIyWlLk6GJQsqaUBKTNV-1">
          <mxGeometry x="700" y="40" width="50" height="30" as="geometry" />
        </mxCell>
        <mxCell id="BrsJwOfU04NCAWNEQIqW-184" value="&lt;font face=&quot;Times New Roman&quot;&gt;&lt;span style=&quot;font-size: 14px; font-weight: 400;&quot;&gt;Texto&lt;/span&gt;&lt;/font&gt;" style="text;strokeColor=none;fillColor=none;html=1;fontSize=24;fontStyle=1;verticalAlign=middle;align=center;" vertex="1" parent="WIyWlLk6GJQsqaUBKTNV-1">
          <mxGeometry x="650" y="15" width="50" height="30" as="geometry" />
        </mxCell>
        <mxCell id="BrsJwOfU04NCAWNEQIqW-185" value="&lt;font face=&quot;Times New Roman&quot;&gt;&lt;span style=&quot;font-size: 14px; font-weight: 400;&quot;&gt;CodM&lt;/span&gt;&lt;/font&gt;" style="text;strokeColor=none;fillColor=none;html=1;fontSize=24;fontStyle=1;verticalAlign=middle;align=center;" vertex="1" parent="WIyWlLk6GJQsqaUBKTNV-1">
          <mxGeometry x="650" y="-10" width="50" height="30" as="geometry" />
        </mxCell>
        <mxCell id="BrsJwOfU04NCAWNEQIqW-189" value="" style="endArrow=none;html=1;rounded=0;entryX=0;entryY=0.5;entryDx=0;entryDy=0;exitX=0.152;exitY=0.03;exitDx=0;exitDy=0;exitPerimeter=0;" edge="1" parent="WIyWlLk6GJQsqaUBKTNV-1" source="BrsJwOfU04NCAWNEQIqW-178" target="BrsJwOfU04NCAWNEQIqW-179">
          <mxGeometry width="50" height="50" relative="1" as="geometry">
            <mxPoint x="470" y="160" as="sourcePoint" />
            <mxPoint x="520" y="110" as="targetPoint" />
            <Array as="points">
              <mxPoint x="610" y="10" />
            </Array>
          </mxGeometry>
        </mxCell>
        <mxCell id="BrsJwOfU04NCAWNEQIqW-190" value="" style="endArrow=none;html=1;rounded=0;entryX=0;entryY=0.5;entryDx=0;entryDy=0;" edge="1" parent="WIyWlLk6GJQsqaUBKTNV-1" target="BrsJwOfU04NCAWNEQIqW-181">
          <mxGeometry width="50" height="50" relative="1" as="geometry">
            <mxPoint x="620" y="35" as="sourcePoint" />
            <mxPoint x="520" y="110" as="targetPoint" />
          </mxGeometry>
        </mxCell>
        <mxCell id="BrsJwOfU04NCAWNEQIqW-191" value="" style="endArrow=none;html=1;rounded=0;" edge="1" parent="WIyWlLk6GJQsqaUBKTNV-1">
          <mxGeometry width="50" height="50" relative="1" as="geometry">
            <mxPoint x="620" y="60" as="sourcePoint" />
            <mxPoint x="633" y="60" as="targetPoint" />
          </mxGeometry>
        </mxCell>
        <mxCell id="BrsJwOfU04NCAWNEQIqW-192" value="Envia" style="rhombus;whiteSpace=wrap;html=1;" vertex="1" parent="WIyWlLk6GJQsqaUBKTNV-1">
          <mxGeometry x="460" y="60" width="80" height="80" as="geometry" />
        </mxCell>
        <mxCell id="BrsJwOfU04NCAWNEQIqW-193" value="" style="endArrow=none;html=1;rounded=0;entryX=0;entryY=0.5;entryDx=0;entryDy=0;exitX=1;exitY=0.5;exitDx=0;exitDy=0;" edge="1" parent="WIyWlLk6GJQsqaUBKTNV-1" source="BrsJwOfU04NCAWNEQIqW-192" target="BrsJwOfU04NCAWNEQIqW-178">
          <mxGeometry width="50" height="50" relative="1" as="geometry">
            <mxPoint x="380" y="160" as="sourcePoint" />
            <mxPoint x="430" y="110" as="targetPoint" />
          </mxGeometry>
        </mxCell>
        <mxCell id="BrsJwOfU04NCAWNEQIqW-194" value="" style="endArrow=none;html=1;rounded=0;entryX=0;entryY=0.5;entryDx=0;entryDy=0;exitX=1;exitY=0.5;exitDx=0;exitDy=0;" edge="1" parent="WIyWlLk6GJQsqaUBKTNV-1" source="WIyWlLk6GJQsqaUBKTNV-3" target="BrsJwOfU04NCAWNEQIqW-192">
          <mxGeometry width="50" height="50" relative="1" as="geometry">
            <mxPoint x="380" y="160" as="sourcePoint" />
            <mxPoint x="430" y="110" as="targetPoint" />
          </mxGeometry>
        </mxCell>
        <mxCell id="BrsJwOfU04NCAWNEQIqW-195" value="&lt;font face=&quot;Times New Roman&quot;&gt;&lt;span style=&quot;font-size: 14px; font-weight: 400;&quot;&gt;1-1&lt;/span&gt;&lt;/font&gt;" style="text;strokeColor=none;fillColor=none;html=1;fontSize=24;fontStyle=1;verticalAlign=middle;align=center;" vertex="1" parent="WIyWlLk6GJQsqaUBKTNV-1">
          <mxGeometry x="400" y="70" width="50" height="30" as="geometry" />
        </mxCell>
        <mxCell id="BrsJwOfU04NCAWNEQIqW-196" value="&lt;font face=&quot;Times New Roman&quot;&gt;&lt;span style=&quot;font-size: 14px; font-weight: 400;&quot;&gt;0-N&lt;/span&gt;&lt;/font&gt;" style="text;strokeColor=none;fillColor=none;html=1;fontSize=24;fontStyle=1;verticalAlign=middle;align=center;" vertex="1" parent="WIyWlLk6GJQsqaUBKTNV-1">
          <mxGeometry x="530" y="70" width="50" height="30" as="geometry" />
        </mxCell>
        <mxCell id="BrsJwOfU04NCAWNEQIqW-212" value="" style="ellipse;whiteSpace=wrap;html=1;fillColor=#000000;" vertex="1" parent="WIyWlLk6GJQsqaUBKTNV-1">
          <mxGeometry x="345" y="-85" width="20" height="10" as="geometry" />
        </mxCell>
        <mxCell id="BrsJwOfU04NCAWNEQIqW-213" value="" style="ellipse;whiteSpace=wrap;html=1;" vertex="1" parent="WIyWlLk6GJQsqaUBKTNV-1">
          <mxGeometry x="345" y="-10" width="20" height="10" as="geometry" />
        </mxCell>
        <mxCell id="BrsJwOfU04NCAWNEQIqW-214" value="" style="ellipse;whiteSpace=wrap;html=1;" vertex="1" parent="WIyWlLk6GJQsqaUBKTNV-1">
          <mxGeometry x="345" y="-60" width="20" height="10" as="geometry" />
        </mxCell>
        <mxCell id="BrsJwOfU04NCAWNEQIqW-215" value="" style="ellipse;whiteSpace=wrap;html=1;" vertex="1" parent="WIyWlLk6GJQsqaUBKTNV-1">
          <mxGeometry x="345" y="-35" width="20" height="10" as="geometry" />
        </mxCell>
        <mxCell id="BrsJwOfU04NCAWNEQIqW-216" value="&lt;font face=&quot;Times New Roman&quot;&gt;&lt;span style=&quot;font-size: 14px; font-weight: 400;&quot;&gt;Email&lt;/span&gt;&lt;/font&gt;" style="text;strokeColor=none;fillColor=none;html=1;fontSize=24;fontStyle=1;verticalAlign=middle;align=center;" vertex="1" parent="WIyWlLk6GJQsqaUBKTNV-1">
          <mxGeometry x="375" y="-50" width="50" height="30" as="geometry" />
        </mxCell>
        <mxCell id="BrsJwOfU04NCAWNEQIqW-217" value="&lt;font face=&quot;Times New Roman&quot;&gt;&lt;span style=&quot;font-size: 14px; font-weight: 400;&quot;&gt;Nome&lt;/span&gt;&lt;/font&gt;" style="text;strokeColor=none;fillColor=none;html=1;fontSize=24;fontStyle=1;verticalAlign=middle;align=center;" vertex="1" parent="WIyWlLk6GJQsqaUBKTNV-1">
          <mxGeometry x="375" y="-75" width="50" height="30" as="geometry" />
        </mxCell>
        <mxCell id="BrsJwOfU04NCAWNEQIqW-218" value="&lt;font face=&quot;Times New Roman&quot;&gt;&lt;span style=&quot;font-size: 14px; font-weight: 400;&quot;&gt;CodU&lt;/span&gt;&lt;/font&gt;" style="text;strokeColor=none;fillColor=none;html=1;fontSize=24;fontStyle=1;verticalAlign=middle;align=center;" vertex="1" parent="WIyWlLk6GJQsqaUBKTNV-1">
          <mxGeometry x="375" y="-100" width="50" height="30" as="geometry" />
        </mxCell>
        <mxCell id="BrsJwOfU04NCAWNEQIqW-219" value="&lt;font face=&quot;Times New Roman&quot;&gt;&lt;span style=&quot;font-size: 14px; font-weight: 400;&quot;&gt;Telefone&lt;/span&gt;&lt;/font&gt;" style="text;strokeColor=none;fillColor=none;html=1;fontSize=24;fontStyle=1;verticalAlign=middle;align=center;" vertex="1" parent="WIyWlLk6GJQsqaUBKTNV-1">
          <mxGeometry x="375" y="-25" width="50" height="30" as="geometry" />
        </mxCell>
        <mxCell id="BrsJwOfU04NCAWNEQIqW-220" value="&lt;font face=&quot;Times New Roman&quot;&gt;&lt;span style=&quot;font-size: 14px; font-weight: 400;&quot;&gt;Senha&lt;/span&gt;&lt;/font&gt;" style="text;strokeColor=none;fillColor=none;html=1;fontSize=24;fontStyle=1;verticalAlign=middle;align=center;" vertex="1" parent="WIyWlLk6GJQsqaUBKTNV-1">
          <mxGeometry x="375" width="50" height="30" as="geometry" />
        </mxCell>
        <mxCell id="BrsJwOfU04NCAWNEQIqW-221" value="" style="ellipse;whiteSpace=wrap;html=1;" vertex="1" parent="WIyWlLk6GJQsqaUBKTNV-1">
          <mxGeometry x="345" y="15" width="20" height="10" as="geometry" />
        </mxCell>
        <mxCell id="BrsJwOfU04NCAWNEQIqW-222" value="" style="endArrow=none;html=1;rounded=0;entryX=0;entryY=0.5;entryDx=0;entryDy=0;" edge="1" parent="WIyWlLk6GJQsqaUBKTNV-1" target="BrsJwOfU04NCAWNEQIqW-214">
          <mxGeometry width="50" height="50" relative="1" as="geometry">
            <mxPoint x="320" y="-55" as="sourcePoint" />
            <mxPoint x="750" y="140" as="targetPoint" />
          </mxGeometry>
        </mxCell>
        <mxCell id="BrsJwOfU04NCAWNEQIqW-223" value="" style="endArrow=none;html=1;rounded=0;entryX=0;entryY=0.5;entryDx=0;entryDy=0;" edge="1" parent="WIyWlLk6GJQsqaUBKTNV-1" target="BrsJwOfU04NCAWNEQIqW-215">
          <mxGeometry width="50" height="50" relative="1" as="geometry">
            <mxPoint x="320" y="-30" as="sourcePoint" />
            <mxPoint x="750" y="140" as="targetPoint" />
          </mxGeometry>
        </mxCell>
        <mxCell id="BrsJwOfU04NCAWNEQIqW-224" value="" style="endArrow=none;html=1;rounded=0;entryX=0;entryY=0.5;entryDx=0;entryDy=0;" edge="1" parent="WIyWlLk6GJQsqaUBKTNV-1" target="BrsJwOfU04NCAWNEQIqW-213">
          <mxGeometry width="50" height="50" relative="1" as="geometry">
            <mxPoint x="320" y="-5" as="sourcePoint" />
            <mxPoint x="485" y="-20" as="targetPoint" />
          </mxGeometry>
        </mxCell>
        <mxCell id="BrsJwOfU04NCAWNEQIqW-225" value="" style="endArrow=none;html=1;rounded=0;entryX=0;entryY=0.5;entryDx=0;entryDy=0;" edge="1" parent="WIyWlLk6GJQsqaUBKTNV-1" target="BrsJwOfU04NCAWNEQIqW-221">
          <mxGeometry width="50" height="50" relative="1" as="geometry">
            <mxPoint x="320" y="20" as="sourcePoint" />
            <mxPoint x="495" y="-10" as="targetPoint" />
          </mxGeometry>
        </mxCell>
        <mxCell id="BrsJwOfU04NCAWNEQIqW-226" value="" style="endArrow=none;html=1;rounded=0;entryX=0;entryY=0.5;entryDx=0;entryDy=0;exitX=0.5;exitY=0;exitDx=0;exitDy=0;" edge="1" parent="WIyWlLk6GJQsqaUBKTNV-1" target="BrsJwOfU04NCAWNEQIqW-212" source="WIyWlLk6GJQsqaUBKTNV-3">
          <mxGeometry width="50" height="50" relative="1" as="geometry">
            <mxPoint x="320" y="30" as="sourcePoint" />
            <mxPoint x="140" y="5" as="targetPoint" />
            <Array as="points">
              <mxPoint x="320" y="-80" />
            </Array>
          </mxGeometry>
        </mxCell>
        <mxCell id="BrsJwOfU04NCAWNEQIqW-228" value="" style="ellipse;whiteSpace=wrap;html=1;" vertex="1" parent="WIyWlLk6GJQsqaUBKTNV-1">
          <mxGeometry x="345" y="35" width="20" height="10" as="geometry" />
        </mxCell>
        <mxCell id="BrsJwOfU04NCAWNEQIqW-229" value="&lt;font face=&quot;Times New Roman&quot;&gt;&lt;span style=&quot;font-size: 14px; font-weight: 400;&quot;&gt;Nota média&lt;/span&gt;&lt;/font&gt;" style="text;strokeColor=none;fillColor=none;html=1;fontSize=24;fontStyle=1;verticalAlign=middle;align=center;" vertex="1" parent="WIyWlLk6GJQsqaUBKTNV-1">
          <mxGeometry x="380" y="20" width="50" height="30" as="geometry" />
        </mxCell>
        <mxCell id="BrsJwOfU04NCAWNEQIqW-230" value="&lt;font face=&quot;Times New Roman&quot;&gt;&lt;span style=&quot;font-size: 14px; font-weight: 400;&quot;&gt;Quantidade de notas&lt;/span&gt;&lt;/font&gt;" style="text;strokeColor=none;fillColor=none;html=1;fontSize=24;fontStyle=1;verticalAlign=middle;align=center;" vertex="1" parent="WIyWlLk6GJQsqaUBKTNV-1">
          <mxGeometry x="400" y="45" width="50" height="30" as="geometry" />
        </mxCell>
        <mxCell id="BrsJwOfU04NCAWNEQIqW-231" value="" style="ellipse;whiteSpace=wrap;html=1;" vertex="1" parent="WIyWlLk6GJQsqaUBKTNV-1">
          <mxGeometry x="345" y="60" width="20" height="10" as="geometry" />
        </mxCell>
        <mxCell id="BrsJwOfU04NCAWNEQIqW-232" value="" style="endArrow=none;html=1;rounded=0;entryX=0;entryY=0.5;entryDx=0;entryDy=0;" edge="1" parent="WIyWlLk6GJQsqaUBKTNV-1" target="BrsJwOfU04NCAWNEQIqW-228">
          <mxGeometry width="50" height="50" relative="1" as="geometry">
            <mxPoint x="320" y="40" as="sourcePoint" />
            <mxPoint x="485" y="25" as="targetPoint" />
          </mxGeometry>
        </mxCell>
        <mxCell id="BrsJwOfU04NCAWNEQIqW-233" value="" style="endArrow=none;html=1;rounded=0;entryX=0;entryY=0.5;entryDx=0;entryDy=0;" edge="1" parent="WIyWlLk6GJQsqaUBKTNV-1" target="BrsJwOfU04NCAWNEQIqW-231">
          <mxGeometry width="50" height="50" relative="1" as="geometry">
            <mxPoint x="320" y="65" as="sourcePoint" />
            <mxPoint x="495" y="35" as="targetPoint" />
          </mxGeometry>
        </mxCell>
        <mxCell id="BrsJwOfU04NCAWNEQIqW-234" value="" style="endArrow=none;html=1;rounded=0;entryX=1;entryY=0.5;entryDx=0;entryDy=0;exitX=0.25;exitY=0;exitDx=0;exitDy=0;" edge="1" parent="WIyWlLk6GJQsqaUBKTNV-1" source="WIyWlLk6GJQsqaUBKTNV-3" target="BrsJwOfU04NCAWNEQIqW-124">
          <mxGeometry width="50" height="50" relative="1" as="geometry">
            <mxPoint x="380" y="-30" as="sourcePoint" />
            <mxPoint x="430" y="-80" as="targetPoint" />
            <Array as="points">
              <mxPoint x="290" />
            </Array>
          </mxGeometry>
        </mxCell>
        <mxCell id="BrsJwOfU04NCAWNEQIqW-235" value="" style="endArrow=none;html=1;rounded=0;entryX=1;entryY=1;entryDx=0;entryDy=0;exitX=0;exitY=0.5;exitDx=0;exitDy=0;" edge="1" parent="WIyWlLk6GJQsqaUBKTNV-1" source="WIyWlLk6GJQsqaUBKTNV-3" target="BrsJwOfU04NCAWNEQIqW-128">
          <mxGeometry width="50" height="50" relative="1" as="geometry">
            <mxPoint x="380" y="-30" as="sourcePoint" />
            <mxPoint x="430" y="-80" as="targetPoint" />
            <Array as="points">
              <mxPoint x="60" y="100" />
              <mxPoint x="60" />
            </Array>
          </mxGeometry>
        </mxCell>
      </root>
    </mxGraphModel>
  </diagram>
</mxfile>
